# xmcd
#
# Track frame offsets: 
#        150
#        20656
#        44520
#        67265
#        89830
#        110517
#        138454
#        160196
#        178639
#        205134
#        235083
#        253261
#        277658
#        300671
#        314589
#        332849
#
# Disc length: 4713 seconds
#
# Revision: 0
# Processed by: cddbd v1.5.1PL0 Copyright (c) Steve Scherf et al.
# Submitted via: ExactAudioCopy v0.95a4
#
DISCID=f0126710
DTITLE=Chris Rea - The Blue Jukebox
DYEAR=2004
DGENRE=Blues
TTITLE0=The Beat goes On
TTITLE1=Long Is the Time, Hard Is The Road
TTITLE2=Let's do It
TTITLE3=Let It Roll
TTITLE4=Steel river Blues
TTITLE5=Somebody Says amen
TTITLE6=Blue Street
TTITLE7=Monday Morning
TTITLE8=Restless Soul
TTITLE9=What Kind Of Love Is This
TTITLE10=Paint My Jukebox Blue
TTITLE11=Baby Don't Cry
TTITLE12=Speed
TTITLE13=Changing Times
TTITLE14=Blue Cafe
TTITLE15=Road To Hell
EXTD=
EXTT0=
EXTT1=
EXTT2=
EXTT3=
EXTT4=
EXTT5=
EXTT6=
EXTT7=
EXTT8=
EXTT9=
EXTT10=
EXTT11=
EXTT12=
EXTT13=
EXTT14=
EXTT15=
PLAYORDER=
